<svg width="64" height="64" viewBox="0 0 64 64" fill="none" xmlns="http://www.w3.org/2000/svg">
<g clip-path="url(#clip0_0_208)">
<path d="M55.326 47.0641C57.8073 42.314 59.114 37.0059 59.114 31.6266V8.77526C59.114 8.08488 58.5543 7.52525 57.864 7.52525C49.3074 7.52525 42.8376 5.55698 38.9171 3.90584C34.6642 2.11482 32.4058 0.298925 32.3853 0.282175C31.926 -0.0938287 31.264 -0.0937037 30.8036 0.280425C30.7811 0.298675 28.5159 2.11907 24.2526 3.91246C23.6162 4.18021 23.3173 4.91297 23.5849 5.54935C23.8527 6.18573 24.5858 6.48461 25.2218 6.21686C28.3859 4.88597 30.5246 3.54371 31.5934 2.80132C32.6474 3.53371 34.7422 4.84972 37.8358 6.16286C41.7935 7.84262 48.1982 9.83002 56.6141 10.0116V31.6266C56.6141 36.6897 55.3638 41.6847 52.9901 46.1366C51.8452 45.8615 50.6417 45.8141 49.4785 45.9944C52.1095 41.6725 53.4902 36.7482 53.4902 31.6267V14.1453C53.4902 13.4996 52.9985 12.9602 52.3556 12.9005C46.1407 12.3248 39.9824 10.8634 35.8819 8.99164C34.5977 8.405 33.3718 7.76137 32.2387 7.07849C31.8419 6.83936 31.3451 6.83936 30.9484 7.07849C29.8155 7.76112 28.5896 8.40488 27.3052 8.99151C23.2044 10.8635 17.0461 12.3249 10.8312 12.9005C10.1882 12.9602 9.69656 13.4996 9.69656 14.1453V31.6266C9.69656 37.4802 11.5003 43.0761 14.9125 47.8088C18.2621 52.4607 23.1108 56.0067 28.576 57.747C30.6683 58.4082 32.535 58.4034 34.6132 57.7464C37.1912 56.9264 39.6376 55.701 41.8516 54.1481C41.7485 55.3261 41.8721 56.5252 42.2266 57.6541C40.1415 58.9468 37.9037 59.9773 35.5609 60.7229C32.8179 61.596 30.3711 61.5967 27.6262 60.7229C15.0335 56.7136 6.57278 45.0207 6.57278 31.6266V10.0119C9.26268 9.95415 11.9156 9.70964 14.4759 9.28301C15.1567 9.16951 15.6169 8.52551 15.5035 7.8445C15.39 7.16349 14.7465 6.70311 14.065 6.81699C11.2443 7.28699 8.30292 7.52525 5.32277 7.52525C4.63251 7.52525 4.07275 8.08488 4.07275 8.77526V31.6266C4.07275 38.6683 6.24328 45.4015 10.3499 51.0986C14.4796 56.8277 20.1913 60.9794 26.8677 63.105C30.103 64.1348 33.085 64.1346 36.3189 63.105C38.7711 62.3247 41.1166 61.2552 43.3101 59.9209C44.9318 62.376 47.7146 63.9999 50.8707 63.9999C55.8643 63.9999 59.9268 59.9374 59.9268 54.9437C59.9268 51.5692 58.0702 48.6219 55.326 47.0641ZM40.7385 51.8708C40.0762 52.3519 39.3895 52.8003 38.6825 53.2131L39.6007 33.9454C39.6517 32.877 39.1169 31.8425 38.2051 31.2456C36.9925 30.4516 36.2684 29.114 36.2684 27.6673V26.0832C36.2684 24.1222 37.1512 22.2133 38.6901 20.8459L39.3931 20.2211C39.6991 19.9492 40.1204 19.8132 40.5419 19.8132C40.9632 19.8132 41.3847 19.9492 41.6906 20.2211L42.3936 20.8459C43.9326 22.2133 44.8153 24.1222 44.8153 26.0832V27.6673C44.8153 29.1277 44.0804 30.4721 42.8493 31.2636C41.922 31.86 41.3815 32.9015 41.4387 33.9816L42.322 50.6183C41.8116 51.0568 41.2832 51.4753 40.7385 51.8708ZM22.7691 28.0496C23.4901 28.7357 24.4647 29.1575 25.5361 29.1575C25.9636 29.1575 26.4177 29.0488 26.8222 28.9175C26.5378 29.7332 26.0041 30.4661 25.2811 31.0001C24.2236 31.7787 23.6529 33.0184 23.7505 34.3215L24.4702 53.1924C24.2513 53.0642 24.035 52.9314 23.8201 52.7963C22.9112 52.2228 22.0261 51.5828 21.1875 50.8893C21.1775 50.881 21.1678 50.8727 21.1578 50.8643L21.7916 34.2988C21.8862 33.0022 21.3199 31.7666 20.2729 30.9882C19.5489 30.4503 19.0135 29.7236 18.7254 28.9206C19.1273 29.0502 19.5779 29.1576 20.0023 29.1576C21.0733 29.1575 22.0482 28.7357 22.7691 28.0496ZM33.8573 55.3632C32.2872 55.8597 30.9104 55.8627 29.332 55.364C28.5472 55.1141 27.7761 54.8226 27.0217 54.4926L26.2477 34.2009C26.2291 33.7298 26.3716 33.3015 26.7647 33.0121C28.5121 31.7217 29.5554 29.6808 29.5554 27.5524L29.5549 18.5611C29.5549 17.8707 28.9951 17.3111 28.3049 17.3111C27.6146 17.3111 27.0549 17.8707 27.0549 18.5611V25.0728C26.9449 26.1074 26.5132 26.5446 25.4826 26.6564C24.672 26.6282 24.0211 25.9602 24.0192 25.1425C24.0192 25.1412 24.0194 25.1399 24.0194 25.1387L24.0196 18.5611C24.0196 17.8708 23.4599 17.3111 22.7696 17.3111C22.0793 17.3111 21.5196 17.8708 21.5196 18.5611L21.5194 25.1319C21.5194 25.1344 21.5191 25.1367 21.5191 25.1392C21.5191 25.9584 20.8673 26.6282 20.0555 26.6564C19.0237 26.5446 18.5924 26.1066 18.484 25.0687V18.5612C18.484 17.8708 17.9243 17.3112 17.234 17.3112C16.5438 17.3112 15.984 17.8708 15.984 18.5612V27.5526C15.984 29.6588 17.0299 31.6934 18.7817 32.9949C19.1402 33.2614 19.3329 33.6848 19.2974 34.1273C19.2959 34.1448 19.2949 34.1621 19.2944 34.1796L18.744 48.5629C18.1016 47.8613 17.4985 47.1219 16.9408 46.3474C13.8371 42.0425 12.1966 36.9522 12.1966 31.6267V15.2758C18.3579 14.6057 24.1907 13.1616 28.3437 11.2658C29.4748 10.7492 30.565 10.19 31.5935 9.59927C32.6223 10.1901 33.7125 10.7492 34.8436 11.2658C38.9962 13.1616 44.829 14.6057 50.9903 15.2758V31.6266C50.9903 36.952 49.3498 42.0423 46.2458 46.348C45.7635 47.0178 45.2477 47.6615 44.7017 48.277L43.9358 33.8491C43.9258 33.6604 44.0253 33.4799 44.2019 33.3663C46.1517 32.1126 47.3157 29.9821 47.3157 27.6672V26.0831C47.3157 23.4084 46.127 20.8183 44.0546 18.9769L43.3516 18.3521C41.8025 16.9755 39.2817 16.9755 37.7327 18.3521L37.0297 18.9767C34.9573 20.8181 33.7687 23.4083 33.7687 26.0829V27.6671C33.7687 29.96 34.9153 32.0795 36.836 33.337C37.0128 33.4528 37.113 33.6356 37.104 33.8261L36.1179 54.5142C35.3792 54.8353 34.6247 55.1191 33.8573 55.3632ZM50.8707 61.5C47.4352 61.5 44.5014 58.7156 44.3237 55.289C44.1348 51.5922 47.1671 48.3876 50.8707 48.3876C54.4335 48.3876 57.4268 51.3761 57.4268 54.9438C57.4268 58.5589 54.4858 61.5 50.8707 61.5Z" fill="#D83A3A"/>
<path d="M52.7674 52.2953L49.8721 55.1905L48.7482 54.0665C48.2601 53.5784 47.4689 53.5784 46.9804 54.0665C46.4922 54.5547 46.4922 55.3462 46.9804 55.8343L48.9881 57.8422C49.2225 58.0765 49.5405 58.2083 49.872 58.2083C50.2035 58.2083 50.5214 58.0765 50.7559 57.8422L54.535 54.063C55.0231 53.5749 55.0231 52.7834 54.535 52.2953C54.0469 51.8072 53.2557 51.8072 52.7674 52.2953Z" fill="#D83A3A"/>
<path d="M18.5096 7.31955C18.945 8.36367 20.4931 8.31142 20.85 7.23305C21.017 6.72867 20.8378 6.15292 20.4085 5.83705C19.9776 5.52017 19.3827 5.5138 18.9446 5.81955C18.4692 6.1513 18.2908 6.78505 18.5096 7.31955Z" fill="#D83A3A"/>
</g>
<defs>
<clipPath id="clip0_0_208">
<rect width="64" height="64" fill="white"/>
</clipPath>
</defs>
</svg>
