<svg width="64" height="64" viewBox="0 0 64 64" fill="none" xmlns="http://www.w3.org/2000/svg">
<g clip-path="url(#clip0_0_124)">
<path d="M45.3204 21.5703L44.6356 19.3164C43.7657 16.7561 40.985 15.3859 38.4248 16.2557C36.9845 16.7451 35.8534 17.8761 35.3641 19.3164L34.6793 21.5703C34.103 23.4711 33.9821 25.4808 34.3262 27.4369C34.6401 29.0839 35.6857 30.4988 37.1678 31.2823L36.4009 48.4268C36.2982 49.3837 36.6086 50.3391 37.2542 51.0529C38.6426 52.5716 40.9994 52.6772 42.5181 51.2888C42.6002 51.2137 42.6789 51.1351 42.754 51.0529C43.3852 50.3593 43.695 49.432 43.6073 48.4983L42.8361 31.2801C44.3162 30.4963 45.3601 29.0823 45.6734 27.4369C46.0176 25.4808 45.8966 23.4711 45.3204 21.5703ZM43.5721 27.0657C43.3412 28.2489 42.498 29.2197 41.3588 29.614C40.9264 29.7765 40.6478 30.1989 40.6686 30.6604L41.4793 48.6668C41.5166 49.02 41.4001 49.3721 41.1593 49.6332C40.517 50.2691 39.4826 50.2691 38.8404 49.6332C38.5876 49.3511 38.4728 48.9713 38.5268 48.5964L39.331 30.6604C39.3518 30.1989 39.0733 29.7765 38.6409 29.614C37.5017 29.2197 36.6585 28.2489 36.4276 27.0657C36.1422 25.4417 36.2428 23.7733 36.7209 22.1953L37.4057 19.9404C37.9356 18.5077 39.5265 17.7759 40.9593 18.3057C41.7168 18.5859 42.3138 19.1831 42.594 19.9404L43.2788 22.1953C43.7564 23.7735 43.8569 25.4417 43.5721 27.0657Z" fill="#D83A3A"/>
<path d="M28.8 16C28.2109 16 27.7333 16.4776 27.7333 17.0667V26.2251L24.8458 29.1125C24.6322 29.3253 24.5186 29.6188 24.5333 29.92L25.4666 48.5867C25.4889 48.9892 25.3428 49.3829 25.0634 49.6736C24.4796 50.2627 23.5286 50.2669 22.9394 49.6829C22.9362 49.6799 22.9332 49.6767 22.9301 49.6736C22.6506 49.3829 22.5046 48.9892 22.5269 48.5867L23.4666 29.92C23.4816 29.6189 23.3684 29.3256 23.1552 29.1125L20.2666 26.2251V17.0667C20.2666 16.4776 19.789 16 19.2 16C18.6109 16 18.1333 16.4776 18.1333 17.0667V26.6667C18.1333 26.9496 18.2458 27.2208 18.4458 27.4208L21.3109 30.2869L20.401 48.4832C20.3042 50.4708 21.837 52.1607 23.8246 52.2575C25.8122 52.3543 27.5021 50.8215 27.5989 48.8339C27.6046 48.7171 27.6046 48.6001 27.5989 48.4833L26.689 30.2871L29.5541 27.4209C29.7541 27.2209 29.8666 26.9497 29.8666 26.6668V17.0668C29.8666 16.4776 29.389 16 28.8 16Z" fill="#D83A3A"/>
<path d="M22.4002 16C21.8111 16 21.3335 16.4776 21.3335 17.0667V25.6C21.3335 26.1891 21.8111 26.6667 22.4002 26.6667C22.9892 26.6667 23.4668 26.1891 23.4668 25.6V17.0667C23.4668 16.4776 22.9892 16 22.4002 16Z" fill="#D83A3A"/>
<path d="M25.5999 16C25.0108 16 24.5332 16.4776 24.5332 17.0667V25.6C24.5332 26.1891 25.0108 26.6667 25.5999 26.6667C26.1889 26.6667 26.6665 26.1891 26.6665 25.6V17.0667C26.6665 16.4776 26.1889 16 25.5999 16Z" fill="#D83A3A"/>
<path d="M32 0C14.3269 0 0 14.3269 0 32C0 49.6731 14.3269 64 32 64C49.6731 64 64 49.6731 64 32C63.98 14.3352 49.6648 0.02 32 0ZM32 61.8667C15.5051 61.8667 2.13333 48.4949 2.13333 32C2.13333 15.5051 15.5051 2.13333 32 2.13333C48.4949 2.13333 61.8667 15.5051 61.8667 32C61.8479 48.4871 48.4871 61.8479 32 61.8667Z" fill="#D83A3A"/>
<path d="M35.4625 52.0227C35.4053 51.4364 34.8836 51.0075 34.2972 51.0647C34.2834 51.066 34.2697 51.0676 34.256 51.0695L34.2602 51.0684C32.7585 51.2428 31.2414 51.2428 29.7397 51.0684C29.1544 50.9998 28.6244 51.4186 28.5557 52.0039C28.487 52.5892 28.9058 53.1192 29.4912 53.1879C31.1566 53.3824 32.839 53.3824 34.5045 53.1879C35.0908 53.1308 35.5197 52.6091 35.4625 52.0227Z" fill="#D83A3A"/>
<path d="M48.32 18.2548C47.9414 17.8034 47.2686 17.7444 46.8173 18.123C46.8158 18.1242 46.8144 18.1256 46.8128 18.1268C46.3625 18.5065 46.3052 19.1793 46.6848 19.6297C53.1161 27.2644 52.6241 38.5536 45.553 45.5998C45.1357 46.0157 45.1345 46.6913 45.5504 47.1086C45.9662 47.526 46.6418 47.5272 47.0592 47.1113C54.9174 39.2829 55.4654 26.7386 48.32 18.2548Z" fill="#D83A3A"/>
<path d="M37.0314 11.2631C32.8627 10.264 28.4907 10.5326 24.4757 12.0343C23.9242 12.2416 23.6454 12.8568 23.8527 13.4082C24.009 13.8238 24.4063 14.0988 24.8502 14.0992C24.9778 14.0986 25.1042 14.0752 25.2234 14.03C28.8391 12.6779 32.7762 12.4364 36.5301 13.3367C37.1027 13.4751 37.6791 13.1232 37.8175 12.5506C37.9559 11.9779 37.6041 11.4015 37.0314 11.2631Z" fill="#D83A3A"/>
<path d="M18.3988 45.5468C14.8029 41.957 12.7876 37.0812 12.7999 32.0001C12.7893 27.9406 14.0752 23.9838 16.4703 20.7062C16.8243 20.2353 16.7295 19.5666 16.2585 19.2126C15.7876 18.8586 15.1189 18.9534 14.7649 19.4244C14.7587 19.4328 14.7525 19.4412 14.7465 19.4497C8.57948 27.9281 9.48694 39.6309 16.8873 47.0572C17.3044 47.4745 17.9809 47.4748 18.3983 47.0577C18.8156 46.6406 18.8159 45.9641 18.3988 45.5468Z" fill="#D83A3A"/>
</g>
<defs>
<clipPath id="clip0_0_124">
<rect width="64" height="64" fill="white"/>
</clipPath>
</defs>
</svg>
