<svg width="64" height="64" viewBox="0 0 64 64" fill="none" xmlns="http://www.w3.org/2000/svg">
<path d="M53.2841 45.339C53.1755 44.8326 52.6761 44.5106 52.171 44.6189C51.6647 44.7275 51.3422 45.2257 51.4509 45.7321L53.3746 54.7046C53.5486 56.8035 52.5912 57.988 50.5025 58.258H13.4979C11.4091 57.988 10.4517 56.8035 10.6259 54.7046L14.7884 35.2932C15.0764 33.9482 16.2841 32.972 17.6602 32.972H25.734C26.2517 32.972 26.6715 32.5522 26.6715 32.0345C26.6715 31.5168 26.2517 31.097 25.734 31.097H21.289V29.0895H42.7114V31.097H29.8189C29.3011 31.097 28.8814 31.5168 28.8814 32.0345C28.8814 32.5522 29.3011 32.972 29.8189 32.972H46.34C47.7161 32.972 48.924 33.9482 49.2121 35.2936L50.5945 41.7386C50.866 42.316 51.2371 42.556 51.7077 42.4586C52.214 42.35 52.5364 41.8516 52.4277 41.3454L51.0454 34.9006C50.5734 32.6966 48.5944 31.097 46.3399 31.097H44.5864V29.0891H49.4632C53.1967 29.0891 56.234 26.0517 56.234 22.3182C56.234 21.8005 55.8144 21.3807 55.2965 21.3807H50.8731C52.643 18.7521 52.8399 15.275 51.3701 12.4753C51.1296 12.017 50.5631 11.84 50.1042 12.0809C49.6459 12.3215 49.4694 12.8883 49.71 13.3466C51.0816 15.9594 50.5712 19.2868 48.4496 21.3806H39.7199C42.0407 18.3132 42.2805 13.8581 40.2804 10.5605C42.431 9.3375 45.1646 9.39662 47.2645 10.7085C47.7034 10.9827 48.282 10.8492 48.5562 10.4101C48.8306 9.971 48.697 9.39262 48.2579 9.11837C45.5101 7.40175 41.9237 7.371 39.1521 9.0485C38.4476 8.27075 37.6344 7.62313 36.7425 7.12075C39.088 6.04875 40.7217 3.68025 40.7217 0.9375C40.7217 0.41975 40.3021 0 39.7842 0H37.8569C35.9282 0 34.1847 0.80775 32.9469 2.10275V0.953625C32.9469 0.435875 32.5272 0.016125 32.0094 0.016125C31.4916 0.016125 31.0719 0.435875 31.0719 0.953625V5.9305C28.6684 6.1565 26.4705 7.25738 24.8481 9.04838C23.4955 8.22975 21.9577 7.80088 20.3515 7.80088C13.515 7.80088 9.29349 15.6871 13.1271 21.3806H8.70361C8.18586 21.3806 7.76611 21.8004 7.76611 22.3181C7.76611 26.0516 10.8036 29.089 14.537 29.089H19.4139V31.0969H17.6601C15.4055 31.0969 13.4266 32.6965 12.9547 34.9002L8.79249 54.3112C8.12236 57.4355 10.6466 59.9341 13.5902 60.1329V63.0624C13.5902 63.5801 14.01 63.9999 14.5277 63.9999H24.2346C24.7524 63.9999 25.1721 63.5801 25.1721 63.0624V60.1329H38.828V63.0624C38.828 63.5801 39.2476 63.9999 39.7655 63.9999H49.4724C49.9902 63.9999 50.4099 63.5801 50.4099 63.0624V60.1329C53.3614 59.9979 55.8662 57.3821 55.2076 54.3114L53.2841 45.339ZM37.8569 1.87487H38.7571C38.3181 4.1405 36.3194 5.85663 33.9275 5.85663H33.0272C33.4662 3.591 35.465 1.87487 37.8569 1.87487ZM31.072 7.81675V12.6205C31.072 13.1382 31.4917 13.558 32.0095 13.558C32.5274 13.558 32.947 13.1382 32.947 12.6205V7.81838C39.4245 8.593 42.093 17.0164 37.178 21.3806H26.8225C21.9091 17.0177 24.5481 8.584 31.072 7.81675ZM13.5141 16.512C13.5141 12.7425 16.5814 9.67575 20.3516 9.67575C21.5495 9.67575 22.6985 9.97937 23.7201 10.5604C21.7156 13.8655 21.9544 18.306 24.2805 21.3805H15.5507C14.2522 20.0992 13.5141 18.344 13.5141 16.512ZM9.73124 23.2556H54.269C53.8305 25.5084 51.8424 27.214 49.4632 27.214H14.5371C12.158 27.214 10.1697 25.5084 9.73124 23.2556ZM23.2971 62.1249H15.4652V60.1329H23.2971V62.1249ZM48.535 62.1249H40.703V60.1329H48.535V62.1249Z" fill="#D83A3A"/>
<path d="M21.3652 45.6146C21.3652 51.4789 26.1361 56.2496 32.0002 56.2496C37.8644 56.2496 42.6352 51.4787 42.6352 45.6146C42.6352 39.7505 37.8644 34.9795 32.0002 34.9795C26.1361 34.9795 21.3652 39.7505 21.3652 45.6146ZM40.7604 45.6146C40.7604 50.4449 36.8306 54.3746 32.0004 54.3746C27.1701 54.3746 23.2404 50.4449 23.2404 45.6146C23.2404 40.7842 27.1701 36.8545 32.0004 36.8545C36.8306 36.8545 40.7604 40.7844 40.7604 45.6146Z" fill="#D83A3A"/>
<path d="M32 42.7265C30.2453 42.8911 29.2857 43.8507 29.1211 45.6054C29.2855 47.3602 30.2451 48.3194 32 48.4829C33.5905 48.4829 34.8788 47.1966 34.8788 45.6054C34.8788 45.1611 34.7788 44.7321 34.5896 44.3442L36.7862 42.1581C37.1532 41.7929 37.1546 41.1994 36.7893 40.8324C36.4241 40.4654 35.8306 40.4639 35.4635 40.8292L33.2647 43.0176C32.8758 42.8271 32.4457 42.7265 32 42.7265ZM32.71 46.3151C32.3185 46.7065 31.6816 46.7066 31.2902 46.3151C30.8982 45.8419 30.8982 45.3686 31.2902 44.8954C31.683 44.5025 32.3185 44.504 32.7106 44.896C33.1303 45.3167 33.0151 45.8966 32.71 46.3151Z" fill="#D83A3A"/>
</svg>
