<svg width="64" height="64" viewBox="0 0 64 64" fill="none" xmlns="http://www.w3.org/2000/svg">
<g clip-path="url(#clip0_0_217)">
<path d="M63.4661 11.4409C63.1368 11.2508 62.7277 11.2508 62.3982 11.4409C54.4927 16.0051 56.8369 14.6516 48.8287 19.2752C48.3912 19.5278 48.2049 20.038 48.3351 20.4924L43.7573 23.1294C42.4516 23.8832 40.8292 23.8832 39.5233 23.1291L35.2688 20.6727C33.3605 19.5708 30.9893 19.5709 29.0809 20.6727L23.2427 24.0435C22.2422 23.9787 21.2592 23.6811 20.3842 23.1762L15.6729 20.4611C15.7866 20.0098 15.5937 19.5189 15.1713 19.2752L10.0036 16.2916C9.55508 16.0328 8.98179 16.1862 8.7229 16.6348C8.46401 17.0832 8.61765 17.6566 9.06605 17.9155L9.52333 18.1795L5.30282 25.4897C5.04393 25.9381 5.19757 26.5115 5.64597 26.7704C6.09237 27.028 6.66665 26.8776 6.92667 26.4272L11.1472 19.117L13.5346 20.4955L5.3877 34.6065L1.87511 32.5785V13.7638L5.16631 15.6639C5.61459 15.9226 6.18813 15.7692 6.44702 15.3208C6.70591 14.8724 6.55227 14.299 6.10387 14.0401L1.60172 11.4409C1.27233 11.2508 0.863177 11.2508 0.533782 11.4409C0.204512 11.6311 0 11.9855 0 12.3657V33.0445C0 33.4244 0.204262 33.7785 0.533907 33.9693L5.14881 36.6337C5.31345 36.7288 5.49608 36.7773 5.68134 36.7773C5.94861 36.7773 6.22213 36.6758 6.42839 36.4745L9.71146 38.3664C9.32256 39.2839 9.37207 40.3277 9.88372 41.2142L10.7338 42.6866C11.2491 43.5793 12.1227 44.1257 13.0755 44.2548C12.974 44.942 13.0945 45.6665 13.4681 46.3134L14.3181 47.7856C15.0435 49.0423 16.5064 49.6251 17.8598 49.2855C17.8872 49.7783 18.03 50.2614 18.284 50.7013L19.134 52.1737C19.5603 52.912 20.2485 53.4401 21.0719 53.6607C21.7662 53.847 22.5072 53.7999 23.188 53.4975C23.2298 53.9504 23.3694 54.3929 23.6037 54.7986L24.4537 56.2709C24.88 57.0092 25.5683 57.5374 26.3916 57.758C27.2125 57.9781 28.0735 57.8664 28.8135 57.4391L30.389 56.5295C30.8096 56.2867 31.1764 55.9766 31.4782 55.614L34.8017 57.5329C35.5509 57.9655 36.4212 58.075 37.2526 57.8439C38.0849 57.6124 38.7735 57.0685 39.1914 56.312L40.0135 54.8236C40.2294 54.4328 40.3536 54.0136 40.3931 53.5924L40.8706 53.8681C41.6188 54.3 42.4891 54.4105 43.3215 54.179C44.1538 53.9475 44.8422 53.4036 45.2601 52.6473L46.0823 51.1588C46.3337 50.7036 46.4606 50.2102 46.4744 49.7193C47.7343 49.9473 49.0998 49.3934 49.8048 48.1724L50.6549 46.7001C51.0001 46.1024 51.1292 45.4381 51.0667 44.7985C51.2889 44.7835 51.5115 44.7448 51.7313 44.6825C52.5687 44.4446 53.2572 43.8913 53.6698 43.1245L54.4754 41.6269C55.07 40.5218 54.9565 39.2349 54.2805 38.2783L57.5102 36.4092C57.8343 36.784 58.3944 36.8972 58.8508 36.6338L61.9383 34.8512L62.0071 34.9705C62.2465 35.3854 62.7393 35.594 63.2083 35.4681C63.6745 35.3433 63.9999 34.9191 63.9999 34.4367V12.3657C64 11.9855 63.7954 11.6311 63.4661 11.4409ZM62.1249 13.764V31.424L54.4777 18.1788L62.1249 13.764ZM12.3577 41.749L11.5077 40.2767C11.2048 39.752 11.3059 39.1124 11.6991 38.7052C11.953 38.4488 11.9112 38.5451 15.4856 36.4601C15.826 36.2637 16.1979 36.1703 16.5651 36.1703C17.3144 36.1703 18.0442 36.5588 18.445 37.2531C19.0423 38.2876 18.6865 39.6153 17.6519 40.2127C17.2909 40.4212 14.4399 42.0672 14.156 42.2311C13.8515 42.4069 13.4969 42.4536 13.1572 42.3626C12.8174 42.2714 12.5336 42.0537 12.3577 41.749ZM15.9421 46.8481L15.092 45.3759C14.7291 44.7473 14.9453 43.9405 15.5738 43.5775C16.9368 42.7906 16.45 43.0716 17.9518 42.2046C18.9865 41.6093 20.3122 41.9654 20.9088 42.999C21.5061 44.0335 21.1503 45.3611 20.1158 45.9585L17.7403 47.3301C17.1118 47.6931 16.3051 47.477 15.9421 46.8481ZM21.5573 51.8495C21.2177 51.7585 20.9338 51.5407 20.7579 51.2362L19.9078 49.7639C19.7321 49.4594 19.6853 49.1046 19.7763 48.765C19.8672 48.4256 20.0848 48.1418 20.3891 47.966C20.4069 47.9558 20.2561 48.0428 22.6052 46.6865C23.6356 46.0918 24.9648 46.4404 25.5648 47.4795C26.1621 48.5139 25.8063 49.8416 24.7717 50.4391L22.5561 51.7181C22.2517 51.8938 21.8968 51.9405 21.5573 51.8495ZM29.4514 54.9056L27.8759 55.8151C27.5713 55.9909 27.2166 56.0376 26.877 55.9466C26.5374 55.8556 26.2535 55.6377 26.0776 55.3334L25.2275 53.861C25.0518 53.5564 25.005 53.2017 25.096 52.8621C25.187 52.5224 25.4048 52.2387 25.7093 52.0628L27.2848 51.1532C27.7869 50.8633 28.3707 50.7871 28.9288 50.9368C29.4877 51.0866 29.9548 51.445 30.2442 51.9463C30.844 52.9846 30.4868 54.3079 29.4514 54.9056ZM58.6546 34.582C58.6083 34.5142 58.5544 34.4543 58.4948 34.4027L56.8367 31.5307C56.5779 31.0821 56.0041 30.9289 55.556 31.1875C55.1076 31.4464 54.954 32.0198 55.2128 32.4682L56.5562 34.795L52.6996 37.0269L45.6278 32.9441C45.1791 32.6852 44.6058 32.8387 44.3471 33.2873C44.0882 33.7357 44.2418 34.3091 44.6902 34.568C45.504 35.0379 51.5902 38.5517 52.3233 38.9749C52.9436 39.333 53.1637 40.1077 52.8243 40.7385L52.0187 42.2361C51.8485 42.5523 51.5645 42.7805 51.2191 42.8787C50.8735 42.9771 50.5119 42.9321 50.201 42.7523C45.7355 40.1734 48.3637 41.692 42.639 38.3868C42.1903 38.1281 41.617 38.2814 41.3583 38.73C41.0994 39.1784 41.253 39.7518 41.7014 40.0107L48.5599 43.9704C49.1802 44.3363 49.392 45.1375 49.0312 45.7624L48.181 47.2347C48.0053 47.5394 47.7214 47.7571 47.3817 47.848C47.0422 47.939 46.6873 47.8923 46.3828 47.7165C42.1539 45.275 43.9645 46.3204 39.535 43.7629C39.0867 43.5041 38.5131 43.6575 38.2543 44.106C37.9954 44.5544 38.1491 45.1279 38.5975 45.3867C39.3854 45.8416 43.159 48.0205 43.9469 48.4754C44.5638 48.8317 44.7855 49.6286 44.4411 50.252L43.619 51.7404C43.4466 52.0523 43.1627 52.2767 42.8193 52.3722C42.4762 52.4679 42.1172 52.4222 41.8084 52.244L39.2944 50.7926C39.2935 50.7921 39.2925 50.7915 39.2916 50.791C39.2523 50.7682 36.7702 49.3352 36.7263 49.3099L36.413 49.129C35.9643 48.8701 35.391 49.0236 35.1323 49.4721C34.8734 49.9205 35.027 50.4939 35.4754 50.7528C36.0743 51.0986 37.246 51.7751 37.8783 52.1402C38.4952 52.4963 38.7167 53.2932 38.3723 53.9168L37.5501 55.4051C37.3779 55.7171 37.0939 55.9415 36.7506 56.037C36.4072 56.1328 36.0484 56.087 35.7397 55.9088L32.3087 53.9283C32.5372 52.9307 32.3828 51.8996 31.8683 51.0086C31.3285 50.0737 30.457 49.4049 29.4142 49.1255C28.8457 48.9732 28.2636 48.9466 27.7002 49.0412C27.8012 48.2033 27.6422 47.3272 27.1888 46.5418C26.3271 45.0495 24.6509 44.3143 23.0426 44.5728C23.2855 42.6071 22.0665 40.7531 20.153 40.2012C20.7666 39.017 20.7836 37.5538 20.0687 36.3156C18.9544 34.3857 16.4779 33.7219 14.5478 34.8362C10.756 37.0255 11.0225 36.8705 10.9498 36.9161L7.4002 34.8705L14.7703 22.1052L19.4472 24.8006C19.888 25.055 20.3504 25.2684 20.8273 25.4389C19.964 25.9718 19.6746 27.1021 20.1852 27.9862L20.4909 28.5155C22.0308 31.1829 25.4542 32.1001 28.122 30.5601L29.4615 29.7868C29.6623 29.6708 29.9163 29.7023 30.0653 29.8618C30.994 30.8561 32.3067 31.4264 33.6667 31.4264C34.9207 31.4264 36.0984 30.9611 37.0007 30.1284L40.8236 32.3356C41.2715 32.594 41.8452 32.4415 42.1043 31.9924C42.3632 31.544 42.2096 30.9706 41.7612 30.7117L38.1207 28.6099C38.2598 28.3166 38.3696 28.0093 38.4488 27.6901C38.5736 27.1874 38.2673 26.6789 37.7648 26.5541C37.2619 26.4292 36.7536 26.7355 36.6288 27.2381C36.527 27.6489 36.3433 28.0274 36.0832 28.3637C36.0801 28.3677 36.0768 28.3718 36.0738 28.376C35.4902 29.1231 34.6135 29.5514 33.6667 29.5514C32.8119 29.5514 32.0196 29.2071 31.4357 28.5821C30.6856 27.7789 29.4885 27.6065 28.5241 28.163L27.1846 28.9363C25.4123 29.9596 23.1378 29.3503 22.1148 27.578L21.8092 27.0486C21.8063 27.0435 21.8081 27.0369 21.8132 27.034C22.7954 26.467 29.0356 22.8643 30.0183 22.2967C31.3484 21.5286 33.0009 21.5286 34.3311 22.2967L38.5856 24.7531C40.4697 25.8408 42.8103 25.8411 44.6937 24.754L49.245 22.1322L53.0208 28.6719C53.2811 29.1225 53.8553 29.2726 54.3015 29.015C54.7499 28.7561 54.9036 28.1827 54.6447 27.7343L50.5542 20.6495C50.5428 20.5902 50.5256 20.5315 50.5022 20.4741L52.8537 19.1164L61.0007 33.2274L58.6546 34.582Z" fill="#D83A3A"/>
<path d="M21.3039 13.116L22.4021 13.6652C23.6527 14.2905 24.6857 15.3236 25.3112 16.5742L25.8602 17.6723C26.0438 18.0396 26.4128 18.2677 26.8234 18.2677C27.2335 18.2677 27.603 18.0399 27.7866 17.6723L28.3357 16.5742C28.961 15.3235 29.9942 14.2903 31.2448 13.6652L32.343 13.116C32.71 12.9325 32.9381 12.5637 32.9382 12.1535C32.9384 11.7428 32.7105 11.3735 32.3428 11.1896L31.2448 10.6406C29.9942 10.0153 28.9611 8.98214 28.3357 7.73156L27.7866 6.63337C27.603 6.26622 27.2341 6.03821 26.8236 6.03809C26.412 6.03809 26.0436 6.26685 25.8601 6.6335L25.311 7.73156C24.6857 8.98226 23.6525 10.0155 22.4021 10.6406L21.3034 11.1899C20.9363 11.3738 20.7084 11.7429 20.7085 12.1536C20.7089 12.5639 20.937 12.9329 21.3039 13.116ZM31.5048 11.4385C31.5047 11.4385 31.5043 11.4388 31.5039 11.439C31.5043 11.4388 31.5045 11.4388 31.5048 11.4385ZM26.8234 8.88276C27.5823 10.2501 28.7259 11.3938 30.0933 12.1527C28.726 12.9118 27.5823 14.0554 26.8234 15.4228C26.0644 14.0554 24.9208 12.9118 23.5534 12.1528C24.9208 11.3938 26.0644 10.2503 26.8234 8.88276Z" fill="#D83A3A"/>
<path d="M35.0971 15.684L36.0121 16.1415C37.0243 16.6477 37.8603 17.4836 38.3665 18.4957L38.8243 19.4115C39.004 19.7704 39.3651 19.9934 39.7665 19.9934C40.1679 19.9934 40.529 19.7704 40.7089 19.4108L41.1664 18.4958C41.6726 17.4836 42.5086 16.6477 43.5208 16.1415C43.5341 16.1349 44.4492 15.6772 44.4364 15.6837C44.7953 15.504 45.0183 15.143 45.0183 14.7416C45.0183 14.3402 44.7953 13.979 44.4359 13.7991L43.5208 13.3416C42.5086 12.8354 41.6726 11.9994 41.1664 10.9872L40.7086 10.0717C40.5289 9.71276 40.1679 9.48975 39.7665 9.48975C39.3651 9.48975 39.0039 9.71276 38.824 10.0722L38.3665 10.9872C37.8603 11.9994 37.0243 12.8354 36.0121 13.3416L35.0966 13.7994C34.7377 13.9791 34.5146 14.3402 34.5146 14.7416C34.5146 15.143 34.7377 15.5041 35.0971 15.684ZM39.7665 12.3277C40.363 13.3111 41.1969 14.145 42.1805 14.7417C41.1972 15.3382 40.3631 16.1722 39.7665 17.1556C39.1699 16.1724 38.3359 15.3383 37.3524 14.7417C38.336 14.145 39.1699 13.3111 39.7665 12.3277Z" fill="#D83A3A"/>
</g>
<defs>
<clipPath id="clip0_0_217">
<rect width="64" height="64" fill="white"/>
</clipPath>
</defs>
</svg>
