<svg width="64" height="64" viewBox="0 0 64 64" fill="none" xmlns="http://www.w3.org/2000/svg">
<path d="M63 35.949C63 31.595 60.889 27.437 57.353 24.827C56.632 24.293 55.738 24 54.837 24C53.709 24 52.652 24.451 51.876 25.218C51.731 25.097 51.599 24.964 51.449 24.849C50.894 24.425 50.228 24.173 49.544 24.069L49.985 19.22C49.995 19.104 50 18.987 50 18.87C50 16.736 48.264 15 46.13 15H45.87C43.736 15 42 16.736 42 18.87C42 18.987 42.005 19.104 42.016 19.221L42.459 24.091C41.825 24.211 41.212 24.456 40.694 24.842C40.515 24.976 40.356 25.13 40.184 25.271C40.095 25.179 40.001 25.093 39.904 25.01C39.961 24.677 40 24.34 40 24C40 22.73 39.604 21.515 38.87 20.5C39.604 19.485 40 18.271 40 17C40 13.576 37.103 10.801 33.651 11.011C33.009 9.171 31.512 7.784 29.672 7.249C28.454 5.73 26.618 4.887 24.651 5.011C23.823 2.638 21.581 1 19 1C16.835 1 14.864 2.158 13.802 4.003C11.154 4.092 8.865 5.961 8.209 8.507C5.113 9.662 3 12.659 3 16C3 18.679 4.318 21.128 6.499 22.608C6.17 23.359 6 24.171 6 25C6 26.8 6.8 28.473 8.173 29.606C8.058 30.07 8 30.537 8 31C8 34.064 10.31 36.6 13.28 36.957L15.492 43.152C14.359 43.987 13.394 45.032 12.651 46.232L7.412 45.068C7.213 45.022 7.008 45 6.802 45C5.257 45 4 46.257 4 47.802V48.198C4 48.478 4.054 48.744 4.131 49H4C2.346 49 1 50.346 1 52C1 53.654 2.346 55 4 55H4.131C4.054 55.256 4 55.522 4 55.802V56.198C4 57.743 5.257 59 6.802 59C7.008 59 7.213 58.978 7.41 58.933L12.651 57.768C14.592 60.902 18.051 63 22 63H22.235C22.791 63 23.354 62.957 23.907 62.872L58.198 57.597C60.98 57.168 63 54.815 63 52C63 49.749 61.697 47.812 59.757 46.899C61.829 44.424 63 41.284 63 38.051V35.949ZM50.233 26.438C53.218 28.72 55 32.355 55 36.164V39.837C55 41.887 54.489 43.894 53.526 45.685L45.507 44.451C45.177 43 45 41.518 45 40.03V35.97C45 34.962 45.101 33.955 45.254 32.957C45.499 32.978 45.743 33 46 33C48.851 33 51 31.71 51 30C51 29.056 50.347 28.218 49.216 27.668L49.363 26.05C49.675 26.113 49.975 26.239 50.233 26.438ZM45.87 17H46.131C47.162 17 48.001 17.839 48.001 18.87C48.001 18.927 47.999 18.984 47.993 19.04L47.085 29.027L47.848 29.272C48.724 29.552 49 29.921 49 30C49 30.249 47.936 31 46 31C44.064 31 43 30.249 43 30C43 29.921 43.276 29.552 44.152 29.271L44.915 29.026L44.007 19.04C44.002 18.983 44 18.926 44 18.87C44 17.839 44.839 17 45.87 17ZM42.64 26.083L42.784 27.668C41.653 28.218 41 29.056 41 30C41 31.102 41.899 32.023 43.296 32.543C43.117 33.678 43 34.824 43 35.97V40.03C43 41.404 43.132 42.776 43.388 44.125L37.493 43.218C37.172 42.119 37 40.986 37 39.836V36.163C37 32.36 38.828 28.726 41.89 26.444C42.113 26.278 42.37 26.156 42.64 26.083ZM31.833 42.347C31.29 40.973 31 39.534 31 38.051V35.948C31 32.226 32.808 28.67 35.835 26.434C36.215 26.154 36.687 26 37.163 26C37.767 26 38.323 26.243 38.73 26.65C36.372 29.234 35 32.628 35 36.164V39.837C35 40.868 35.123 41.888 35.346 42.888L31.833 42.347ZM31.927 12.301L32.109 13.33L33.129 13.103C33.439 13.034 33.724 13 34 13C36.206 13 38 14.794 38 17C38 18.051 37.592 19.045 36.852 19.799L36.164 20.5L36.852 21.201C37.592 21.955 38 22.949 38 24C38 24.03 37.994 24.06 37.994 24.091C37.723 24.037 37.447 24 37.163 24C36.262 24 35.368 24.293 34.647 24.826C32.827 26.169 31.394 27.926 30.422 29.905C30.043 28.725 29.645 27.595 29.235 26.522C30.16 21.636 33.591 18.808 33.626 18.779L33 18L32.375 17.219C32.236 17.33 29.531 19.539 28.012 23.524C25.931 18.746 23.967 15.655 23.841 15.459L22.158 16.541C22.185 16.582 23.71 18.981 25.485 22.8C22.494 21.674 19.095 21.985 18.9 22.005L19.099 23.995C20.603 23.844 24.863 23.917 26.853 25.948C27.554 27.671 28.245 29.56 28.855 31.584C25.815 30.025 22.188 30 22 30V32C22.047 32 26.499 32.03 29.134 34.125C29.052 34.727 29 35.335 29 35.949V38.052C29 39.403 29.208 40.724 29.594 42.004L23.907 41.129C23.607 41.083 23.304 41.052 23 41.03C20.794 41.03 19 39.222 19 37.001C19 36.535 19.093 36.057 19.275 35.578L19.567 34.813L18.874 34.375C17.701 33.633 17 32.372 17 31C17 30.213 17.231 29.45 17.668 28.792L18.291 27.856L17.289 27.347C15.26 26.315 14 24.267 14 22C14 19.339 15.788 16.969 18.349 16.236L18.97 16.058L19.063 15.419C19.348 13.47 21.041 12 23 12C23.037 12 23.073 12.008 23.109 12.013C23.179 12.023 23.25 12.032 23.321 12.037L24.038 12.095L24.32 11.433C24.951 9.955 26.395 9 28 9C29.938 9 31.589 10.388 31.927 12.301ZM14.705 35H14C11.794 35 10 33.206 10 31C10 30.533 10.093 30.055 10.275 29.578L10.568 28.813L9.875 28.375C8.701 27.633 8 26.372 8 25C8 24.213 8.231 23.45 8.668 22.792L9.291 21.856L8.289 21.347C6.26 20.315 5 18.267 5 16C5 13.339 6.788 10.969 9.348 10.236L9.969 10.058L10.062 9.419C10.348 7.47 12.041 6 14 6C14.038 6 14.075 6.008 14.112 6.013C14.18 6.022 14.248 6.031 14.318 6.037L15.038 6.097L15.321 5.432C15.951 3.955 17.395 3 19 3C20.938 3 22.589 4.388 22.927 6.301L23.109 7.33L24.129 7.103C24.439 7.034 24.724 7 25 7C25.46 7 25.897 7.101 26.315 7.247C24.845 7.677 23.579 8.653 22.802 10.003C20.154 10.092 17.865 11.961 17.209 14.507C14.113 15.662 12 18.659 12 22C12 24.679 13.318 27.128 15.499 28.608C15.17 29.359 15 30.171 15 31C15 32.8 15.8 34.473 17.173 35.607C17.058 36.071 17 36.537 17 37C17 38.757 17.756 40.336 18.953 41.438C18.359 41.61 17.788 41.833 17.24 42.098L14.705 35ZM6 48.198V47.802C6 47.3 6.486 46.913 6.977 47.019L11.736 48.077C11.62 48.379 11.516 48.686 11.427 49H6.802C6.36 49 6 48.64 6 48.198ZM3 52C3 51.449 3.449 51 4 51H6.802H11.05C11.021 51.33 11 51.662 11 52C11 52.338 11.021 52.67 11.051 53H6.802H4C3.449 53 3 52.551 3 52ZM6.975 56.981C6.501 57.083 6 56.699 6 56.198V55.802C6 55.36 6.36 55 6.802 55H11.426C11.515 55.314 11.62 55.621 11.735 55.923L6.975 56.981ZM61 52C61 53.821 59.694 55.343 57.895 55.62L23.605 60.895C23.151 60.965 22.69 61 22.235 61H22C17.038 61 13 56.962 13 52C13 47.038 17.038 43 22 43H22.235C22.69 43 23.151 43.035 23.604 43.104L57.894 48.379C59.694 48.657 61 50.179 61 52ZM61 38.051C61 41.127 59.755 44.103 57.589 46.309L55.602 46.003C56.515 44.085 57 41.982 57 39.836V36.163C57 32.609 55.646 29.198 53.32 26.61C53.724 26.229 54.26 26 54.837 26C55.314 26 55.785 26.154 56.165 26.436C59.192 28.67 61 32.227 61 35.949V38.051Z" fill="#D83A3A"/>
<path d="M21 47H23V57H21V47Z" fill="#D83A3A"/>
<path d="M29 47H31V57H29V47Z" fill="#D83A3A"/>
<path d="M37 47H39V57H37V47Z" fill="#D83A3A"/>
<path d="M45 49H47V55H45V49Z" fill="#D83A3A"/>
<path d="M53 50H55V54H53V50Z" fill="#D83A3A"/>
</svg>
