<svg width="64" height="64" viewBox="0 0 64 64" fill="none" xmlns="http://www.w3.org/2000/svg">
<g clip-path="url(#clip0_0_177)">
<path d="M57.0445 41.7995C56.9826 41.696 56.9175 41.5969 56.8525 41.5094C56.2061 40.6059 55.245 40.0087 54.1485 39.8283C53.0572 39.648 51.9511 39.905 51.0509 40.5515L39.1255 49.0668H26.6669C26.0791 49.0668 25.6002 48.5889 25.6002 48.0002C25.6002 47.4114 26.0791 46.9335 26.6669 46.9335H33.6002C35.6589 46.9335 37.3336 45.2589 37.3336 43.2002C37.3336 43.1884 37.3325 43.0903 37.3315 43.0797C37.2654 41.022 35.5299 39.4178 33.515 39.4669H19.6387C18.4089 39.4775 17.211 39.9182 16.267 40.7053L11.051 45.0467C10.8077 45.2504 10.667 45.5502 10.667 45.8669V58.6669C10.667 59.2568 11.1449 59.7335 11.7336 59.7335H38.1987C39.931 59.7314 41.6185 59.1213 42.9519 58.0173L55.8831 47.3325C57.6397 46.081 58.1496 43.6513 57.0445 41.7995ZM54.5859 45.6417L41.5927 56.3734C40.6391 57.1628 39.4327 57.5979 38.1975 57.6H12.8002V46.3669L17.6332 42.3434C18.2007 41.8709 18.9186 41.6063 19.6482 41.5999L33.549 41.5989C34.4332 41.5978 35.1714 42.2667 35.2002 43.2C35.2002 44.0822 34.4824 44.8 33.6002 44.8H26.6669C24.9026 44.8 23.4669 46.2358 23.4669 48C23.4669 49.7643 24.9026 51.2 26.6669 51.2H39.4669C39.6887 51.2 39.9052 51.1307 40.0887 51.0017L52.2935 42.2859C52.733 41.9702 53.2674 41.8475 53.8029 41.9328C54.3372 42.0213 54.8045 42.3114 55.1255 42.7594C55.1575 42.8032 55.1862 42.8479 55.214 42.8938C55.7539 43.7974 55.5031 44.9845 54.5859 45.6417Z" fill="#D83A3A"/>
<path d="M11.7014 43.7334H0V45.8668H10.6346V61.8668H0V64H11.7014C12.2901 64 12.768 63.5233 12.768 62.9334V44.8C12.768 44.2101 12.2901 43.7334 11.7014 43.7334Z" fill="#D83A3A"/>
<path d="M5.3333 53.3335C3.56905 53.3335 2.1333 54.7692 2.1333 56.5335C2.1333 58.2977 3.56905 59.7335 5.3333 59.7335C7.09755 59.7335 8.5333 58.2977 8.5333 56.5335C8.5333 54.7692 7.09755 53.3335 5.3333 53.3335ZM5.3333 57.6001C4.74555 57.6001 4.26668 57.1222 4.26668 56.5335C4.26668 55.9447 4.74555 55.4669 5.3333 55.4669C5.92105 55.4669 6.39993 55.9447 6.39993 56.5335C6.39993 57.1222 5.92105 57.6001 5.3333 57.6001Z" fill="#D83A3A"/>
<path d="M62.9334 33.0664H1.06662C0.477875 33.0664 0 33.5432 0 34.133C0 38.2493 3.34938 41.5997 7.46663 41.5997H56.5332C60.6495 41.5997 63.9999 38.2493 63.9999 34.133C64 33.5433 63.5233 33.0664 62.9334 33.0664ZM56.5334 39.4664H7.46663C4.89062 39.4664 2.736 37.6307 2.241 35.1998H61.7589C61.264 37.6307 59.1094 39.4664 56.5334 39.4664Z" fill="#D83A3A"/>
<path d="M32 5.3335C16.7082 5.3335 4.2666 17.7751 4.2666 33.0669V34.1335C4.2666 34.7234 4.74448 35.2001 5.33323 35.2001H58.6666C59.2565 35.2001 59.7332 34.7234 59.7332 34.1335V33.0669C59.7334 17.775 47.2927 5.3335 32 5.3335ZM6.39998 33.0667C6.39998 18.9515 17.8847 7.46675 32 7.46675C46.1152 7.46675 57.6 18.9515 57.6 33.0667H6.39998Z" fill="#D83A3A"/>
<path d="M14.4557 17.501C13.7101 18.3394 13.019 19.2365 12.4014 20.1687L14.1795 21.3474C14.7427 20.4982 15.372 19.6801 16.0504 18.9175L14.4557 17.501Z" fill="#D83A3A"/>
<path d="M32 9.6001C26.0097 9.60335 20.3062 11.8667 15.9414 15.9702L17.4028 17.5243C21.3708 13.7931 26.5558 11.7366 32.0012 11.7335L32 9.6001Z" fill="#D83A3A"/>
<path d="M35.1998 0H28.7998V2.13337H35.1998V0Z" fill="#D83A3A"/>
<path d="M33.067 1.06641H30.9336V6.39978H33.067V1.06641Z" fill="#D83A3A"/>
</g>
<defs>
<clipPath id="clip0_0_177">
<rect width="64" height="64" fill="white"/>
</clipPath>
</defs>
</svg>
